<svg data-v-0dd9719b="" version="1.0" xmlns="http://www.w3.org/2000/svg" xmlns:xlink="http://www.w3.org/1999/xlink" width="100%" height="100%" viewBox="0 0 340.000000 250.000000" preserveAspectRatio="xMidYMid meet" color-interpolation-filters="sRGB" style="margin: auto;"> <rect data-v-0dd9719b="" x="0" y="0" width="100%" height="100%" fill="#0d3b36" fill-opacity="1" class="background"></rect> <rect data-v-0dd9719b="" x="0" y="0" width="100%" height="100%" fill="url(#watermark)" fill-opacity="1" class="watermarklayer"></rect> <g data-v-0dd9719b="" fill="#fdf5ca" class="pmspacesvg" transform="translate(46.60499572753906,90.84200286865234)"><!----> <polyline data-gra="graph-name" stroke="#fdf5ca" stroke-width="20" fill-opacity="0" stroke-opacity="0.5" points="0,58.31599426269531 0,0 236.79000854492188,0"></polyline> <!----> <g mask="url(#a6cbcde7-991a-4e9c-b63b-20e7b012bfdb)"><g><rect data-gra="graph-name-bg" stroke-width="2" class="i-icon-bg" x="0" y="0" width="246.79000854492188" height="68.31599807739258"></rect> <!----> <!----> </g> <g transform="translate(10,10)"><g data-gra="path-name" fill-rule="" class="tp-name" fill="#0d3b36" transform="translate(0,0)"><g transform="scale(1)"><g><path d="M4.34-6.75L1.98-4.01C3.33-2.59 4.94-1.48 6.79-0.66 8.65 0.16 10.66 0.57 12.83 0.57 14.47 0.57 15.93 0.34 17.22-0.12 18.51-0.57 19.61-1.2 20.52-2.01 21.44-2.81 22.14-3.74 22.62-4.81 23.11-5.88 23.35-7.03 23.35-8.26 23.35-9.39 23.19-10.39 22.86-11.25 22.53-12.12 22.08-12.87 21.51-13.52 20.95-14.16 20.27-14.73 19.49-15.22 18.7-15.7 17.87-16.14 16.98-16.51L12.6-18.4C11.97-18.65 11.35-18.93 10.76-19.23 10.16-19.52 9.61-19.87 9.11-20.26 8.6-20.66 8.2-21.11 7.9-21.63 7.6-22.15 7.45-22.79 7.45-23.54 7.45-24.96 7.98-26.07 9.03-26.87 10.09-27.67 11.48-28.07 13.21-28.07 14.66-28.07 15.95-27.81 17.1-27.29 18.25-26.77 19.3-26.06 20.24-25.15L22.36-27.69C21.26-28.83 19.93-29.75 18.35-30.45 16.78-31.16 15.07-31.52 13.21-31.52 11.79-31.52 10.5-31.31 9.32-30.9 8.14-30.49 7.12-29.92 6.25-29.18 5.39-28.44 4.71-27.57 4.22-26.56 3.74-25.56 3.49-24.47 3.49-23.31 3.49-22.17 3.68-21.18 4.06-20.31 4.43-19.45 4.92-18.7 5.52-18.07 6.12-17.44 6.79-16.91 7.55-16.47 8.3-16.03 9.04-15.65 9.77-15.33L14.2-13.4C14.92-13.05 15.6-12.72 16.23-12.41 16.86-12.09 17.4-11.74 17.86-11.35 18.31-10.95 18.68-10.48 18.94-9.93 19.21-9.38 19.34-8.71 19.34-7.93 19.34-6.42 18.78-5.2 17.65-4.27 16.51-3.34 14.92-2.88 12.88-2.88 11.28-2.88 9.73-3.23 8.23-3.94 6.74-4.65 5.44-5.58 4.34-6.75ZM29.06-33.59L29.06 0 32.88 0 32.88-6.04 37.18-11.04 43.88 0 48.12 0 39.39-13.73 47.09-22.93 42.79-22.93 33.03-10.85 32.88-10.85 32.88-33.59ZM54.4-27.65C55.15-27.65 55.79-27.88 56.31-28.35 56.83-28.83 57.09-29.42 57.09-30.15 57.09-30.9 56.83-31.51 56.31-31.96 55.79-32.42 55.15-32.65 54.4-32.65 53.64-32.65 53.01-32.42 52.49-31.96 51.97-31.51 51.71-30.9 51.71-30.15 51.71-29.42 51.97-28.83 52.49-28.35 53.01-27.88 53.64-27.65 54.4-27.65ZM52.42-22.93L52.42 0 56.29 0 56.29-22.93ZM64.02-33.59L64.02 0 67.14 0 67.47-2.26 67.61-2.26C68.61-1.35 69.69-0.65 70.84-0.17 71.99 0.32 73.1 0.57 74.17 0.57 75.49 0.57 76.75 0.29 77.94-0.26 79.14-0.81 80.19-1.62 81.1-2.69 82.01-3.76 82.74-5.06 83.27-6.61 83.81-8.15 84.07-9.89 84.07-11.84 84.07-13.6 83.88-15.2 83.48-16.63 83.09-18.06 82.51-19.29 81.74-20.31 80.97-21.33 80.02-22.12 78.88-22.67 77.75-23.22 76.45-23.5 74.97-23.5 73.68-23.5 72.42-23.19 71.19-22.58 69.97-21.96 68.83-21.2 67.8-20.29L67.89-24.44 67.89-33.59ZM67.89-5.1L67.89-17.13C70.12-19.2 72.17-20.24 74.02-20.24 75.09-20.24 76.01-20.04 76.78-19.63 77.56-19.22 78.18-18.64 78.67-17.9 79.16-17.17 79.51-16.28 79.73-15.24 79.95-14.2 80.06-13.05 80.06-11.79 80.06-10.38 79.9-9.11 79.57-7.97 79.24-6.84 78.78-5.89 78.2-5.12 77.62-4.35 76.93-3.75 76.12-3.33 75.32-2.9 74.45-2.69 73.51-2.69 72.75-2.69 71.88-2.87 70.89-3.23 69.9-3.59 68.9-4.21 67.89-5.1ZM92.19-27.65C92.94-27.65 93.58-27.88 94.1-28.35 94.62-28.83 94.88-29.42 94.88-30.15 94.88-30.9 94.62-31.51 94.1-31.96 93.58-32.42 92.94-32.65 92.19-32.65 91.43-32.65 90.8-32.42 90.28-31.96 89.76-31.51 89.5-30.9 89.5-30.15 89.5-29.42 89.76-28.83 90.28-28.35 90.8-27.88 91.43-27.65 92.19-27.65ZM90.21-22.93L90.21 0 94.08 0 94.08-22.93ZM100.16-11.42C100.16-7.58 101.02-4.62 102.73-2.55 104.45-0.47 106.75 0.57 109.65 0.57 111 0.57 112.26 0.24 113.44-0.4 114.62-1.05 115.67-1.81 116.58-2.69L116.72-2.69 117.05 0 120.26 0 120.26-33.59 116.34-33.59 116.34-24.77 116.53-20.85C115.53-21.67 114.54-22.32 113.56-22.79 112.59-23.26 111.44-23.5 110.12-23.5 108.8-23.5 107.54-23.21 106.34-22.65 105.15-22.08 104.09-21.28 103.18-20.24 102.27-19.2 101.54-17.94 100.99-16.44 100.44-14.95 100.16-13.27 100.16-11.42ZM104.17-11.46C104.17-12.79 104.35-13.98 104.69-15.05 105.04-16.12 105.51-17.04 106.11-17.81 106.7-18.58 107.4-19.18 108.21-19.6 109.01-20.03 109.87-20.24 110.78-20.24 111.72-20.24 112.64-20.06 113.54-19.7 114.43-19.34 115.37-18.71 116.34-17.83L116.34-5.85C115.4-4.78 114.46-3.99 113.51-3.47 112.57-2.95 111.56-2.69 110.49-2.69 108.48-2.69 106.92-3.46 105.82-5 104.72-6.54 104.17-8.7 104.17-11.46ZM129.98-27.65C130.73-27.65 131.37-27.88 131.89-28.35 132.41-28.83 132.67-29.42 132.67-30.15 132.67-30.9 132.41-31.51 131.89-31.96 131.37-32.42 130.73-32.65 129.98-32.65 129.22-32.65 128.59-32.42 128.07-31.96 127.55-31.51 127.29-30.9 127.29-30.15 127.29-29.42 127.55-28.83 128.07-28.35 128.59-27.88 129.22-27.65 129.98-27.65ZM128-22.93L128 0 131.87 0 131.87-22.93ZM137.95-11.42C137.95-7.58 138.81-4.62 140.52-2.55 142.24-0.47 144.54 0.57 147.44 0.57 148.79 0.57 150.05 0.24 151.23-0.4 152.41-1.05 153.46-1.81 154.37-2.69L154.51-2.69 154.84 0 158.05 0 158.05-33.59 154.14-33.59 154.14-24.77 154.32-20.85C153.32-21.67 152.33-22.32 151.35-22.79 150.38-23.26 149.23-23.5 147.91-23.5 146.59-23.5 145.33-23.21 144.13-22.65 142.94-22.08 141.88-21.28 140.97-20.24 140.06-19.2 139.33-17.94 138.78-16.44 138.23-14.95 137.95-13.27 137.95-11.42ZM141.96-11.46C141.96-12.79 142.14-13.98 142.48-15.05 142.83-16.12 143.3-17.04 143.9-17.81 144.5-18.58 145.19-19.18 146-19.6 146.8-20.03 147.66-20.24 148.57-20.24 149.51-20.24 150.43-20.06 151.33-19.7 152.22-19.34 153.16-18.71 154.14-17.83L154.14-5.85C153.19-4.78 152.25-3.99 151.3-3.47 150.36-2.95 149.35-2.69 148.29-2.69 146.27-2.69 144.72-3.46 143.61-5 142.51-6.54 141.96-8.7 141.96-11.46ZM165.79-22.93L165.79 0 169.66 0 169.66-14.72C170.44-16.67 171.36-18.04 172.42-18.82 173.47-19.61 174.49-20 175.46-20 175.93-20 176.33-19.97 176.64-19.91 176.95-19.85 177.3-19.75 177.68-19.63L178.43-23.02C177.71-23.34 176.89-23.5 175.98-23.5 174.66-23.5 173.44-23.07 172.32-22.22 171.21-21.37 170.26-20.22 169.47-18.78L169.33-18.78 169-22.93ZM184.14-27.65C184.9-27.65 185.53-27.88 186.05-28.35 186.57-28.83 186.83-29.42 186.83-30.15 186.83-30.9 186.57-31.51 186.05-31.96 185.53-32.42 184.9-32.65 184.14-32.65 183.39-32.65 182.75-32.42 182.23-31.96 181.71-31.51 181.45-30.9 181.45-30.15 181.45-29.42 181.71-28.83 182.23-28.35 182.75-27.88 183.39-27.65 184.14-27.65ZM182.16-22.93L182.16 0 186.03 0 186.03-22.93ZM191.36-2.08L191.36 0 208.72 0 208.72-3.16 196.27-3.16 208.34-20.85 208.34-22.93 192.68-22.93 192.68-19.77 203.44-19.77ZM211.41-2.08L211.41 0 228.77 0 228.77-3.16 216.32-3.16 228.4-20.85 228.4-22.93 212.73-22.93 212.73-19.77 223.49-19.77Z" transform="translate(-1.9800000190734863, 33.59000015258789)"></path></g> <!----> <!----> <!----> <!----> <!----> <!----> <!----></g></g> <g data-gra="path-slogan" fill-rule="" class="tp-slogan" fill="#0d3b36" transform="translate(56.905006408691406,40.15999984741211)"><!----> <!----> <g transform="scale(1, 1)"><g transform="scale(1)"><path d="M0.62-3.94C0.62-3.30 0.71-2.72 0.89-2.21C1.06-1.71 1.31-1.28 1.62-0.93C1.93-0.58 2.30-0.32 2.74-0.13C3.17 0.05 3.64 0.14 4.16 0.14C4.69 0.14 5.17 0.06 5.59-0.11C6.01-0.29 6.34-0.50 6.60-0.77L6.60-4.08L4.02-4.08L4.02-3.25L5.69-3.25L5.69-1.20C5.53-1.06 5.32-0.94 5.07-0.86C4.82-0.77 4.55-0.73 4.27-0.73C3.85-0.73 3.47-0.81 3.15-0.96C2.83-1.11 2.55-1.33 2.33-1.61C2.11-1.89 1.95-2.23 1.83-2.62C1.71-3.02 1.66-3.46 1.66-3.96C1.66-4.45 1.72-4.89 1.84-5.28C1.97-5.67 2.14-6.01 2.36-6.28C2.59-6.56 2.86-6.77 3.18-6.92C3.50-7.07 3.86-7.14 4.26-7.14C4.66-7.14 4.99-7.07 5.25-6.93C5.51-6.79 5.74-6.62 5.94-6.41L6.50-7.04C6.27-7.28 5.97-7.51 5.61-7.71C5.25-7.91 4.79-8.02 4.25-8.02C3.72-8.02 3.24-7.92 2.80-7.73C2.36-7.55 1.97-7.28 1.65-6.92C1.33-6.57 1.07-6.14 0.89-5.64C0.71-5.14 0.62-4.57 0.62-3.94ZM9.76-3.05L9.76 0L10.76 0L10.76-3.05L13.13-7.87L12.08-7.87L11.08-5.65C10.96-5.36 10.83-5.08 10.69-4.80C10.56-4.52 10.42-4.23 10.28-3.94L10.24-3.94C10.10-4.23 9.97-4.52 9.85-4.80C9.73-5.08 9.61-5.36 9.48-5.65L8.46-7.87L7.39-7.87ZM17.38-3.20L15.01-3.20L15.38-4.40C15.53-4.84 15.66-5.28 15.79-5.72C15.92-6.15 16.04-6.60 16.16-7.06L16.21-7.06C16.34-6.60 16.47-6.15 16.60-5.72C16.72-5.28 16.86-4.84 17.00-4.40ZM17.63-2.40L18.37 0L19.44 0L16.78-7.87L15.65-7.87L12.98 0L14.00 0L14.76-2.40ZM21.71-7.03L21.71 0L22.72 0L22.72-7.03L25.09-7.03L25.09-7.87L19.33-7.87L19.33-7.03ZM28.14-7.03L28.14 0L29.15 0L29.15-7.03L31.52-7.03L31.52-7.87L25.76-7.87L25.76-7.03ZM34.91-3.94C34.91-3.30 35.00-2.72 35.17-2.21C35.35-1.71 35.59-1.28 35.90-0.93C36.22-0.58 36.59-0.32 37.02-0.13C37.45 0.05 37.93 0.14 38.45 0.14C38.98 0.14 39.45 0.06 39.87-0.11C40.29-0.29 40.63-0.50 40.88-0.77L40.88-4.08L38.30-4.08L38.30-3.25L39.97-3.25L39.97-1.20C39.81-1.06 39.61-0.94 39.35-0.86C39.10-0.77 38.84-0.73 38.56-0.73C38.13-0.73 37.76-0.81 37.43-0.96C37.11-1.11 36.84-1.33 36.62-1.61C36.40-1.89 36.23-2.23 36.11-2.62C36.00-3.02 35.94-3.46 35.94-3.96C35.94-4.45 36.00-4.89 36.13-5.28C36.25-5.67 36.42-6.01 36.65-6.28C36.87-6.56 37.14-6.77 37.46-6.92C37.78-7.07 38.14-7.14 38.54-7.14C38.94-7.14 39.27-7.07 39.53-6.93C39.79-6.79 40.02-6.62 40.22-6.41L40.79-7.04C40.56-7.28 40.26-7.51 39.89-7.71C39.53-7.91 39.08-8.02 38.53-8.02C38.00-8.02 37.52-7.92 37.08-7.73C36.64-7.55 36.26-7.28 35.93-6.92C35.61-6.57 35.36-6.14 35.18-5.64C35.00-5.14 34.91-4.57 34.91-3.94ZM45.67 0.14C46.17 0.14 46.62 0.05 47.03-0.14C47.45-0.34 47.80-0.61 48.10-0.97C48.40-1.32 48.63-1.75 48.80-2.26C48.96-2.77 49.04-3.34 49.04-3.97C49.04-4.60 48.96-5.16 48.80-5.66C48.63-6.16 48.40-6.58 48.10-6.93C47.80-7.28 47.45-7.55 47.03-7.73C46.62-7.92 46.17-8.02 45.67-8.02C45.18-8.02 44.72-7.92 44.31-7.74C43.90-7.56 43.54-7.29 43.25-6.94C42.95-6.59 42.72-6.17 42.56-5.67C42.39-5.17 42.31-4.60 42.31-3.97C42.31-3.34 42.39-2.77 42.56-2.26C42.72-1.75 42.95-1.32 43.25-0.97C43.54-0.61 43.90-0.34 44.31-0.14C44.72 0.05 45.18 0.14 45.67 0.14ZM45.67-0.73C45.32-0.73 45.00-0.81 44.72-0.96C44.43-1.11 44.19-1.33 43.99-1.61C43.78-1.90 43.62-2.24 43.51-2.63C43.40-3.03 43.34-3.48 43.34-3.97C43.34-4.46 43.40-4.90 43.51-5.29C43.62-5.68 43.78-6.02 43.99-6.29C44.19-6.56 44.43-6.77 44.72-6.92C45.00-7.07 45.32-7.14 45.67-7.14C46.02-7.14 46.34-7.07 46.63-6.92C46.91-6.77 47.15-6.56 47.36-6.29C47.56-6.02 47.72-5.68 47.83-5.29C47.94-4.90 48-4.46 48-3.97C48-3.48 47.94-3.03 47.83-2.63C47.72-2.24 47.56-1.90 47.36-1.61C47.15-1.33 46.91-1.11 46.63-0.96C46.34-0.81 46.02-0.73 45.67-0.73ZM50.74-7.87L50.74 0L51.68 0L51.68-4.12C51.68-4.53 51.67-4.95 51.64-5.36C51.61-5.77 51.58-6.18 51.55-6.58L51.60-6.58L52.45-4.96L55.31 0L56.34 0L56.34-7.87L55.39-7.87L55.39-3.80C55.39-3.39 55.41-2.97 55.43-2.54C55.46-2.11 55.49-1.70 55.51-1.30L55.46-1.30L54.61-2.93L51.77-7.87ZM58.50-7.87L58.50 0L59.45 0L59.45-4.12C59.45-4.53 59.43-4.95 59.41-5.36C59.38-5.77 59.35-6.18 59.32-6.58L59.36-6.58L60.22-4.96L63.07 0L64.10 0L64.10-7.87L63.16-7.87L63.16-3.80C63.16-3.39 63.17-2.97 63.20-2.54C63.23-2.11 63.25-1.70 63.28-1.30L63.23-1.30L62.38-2.93L59.53-7.87ZM69.61-3.20L67.25-3.20L67.62-4.40C67.76-4.84 67.90-5.28 68.03-5.72C68.16-6.15 68.28-6.60 68.40-7.06L68.45-7.06C68.58-6.60 68.70-6.15 68.83-5.72C68.96-5.28 69.10-4.84 69.24-4.40ZM69.86-2.40L70.61 0L71.68 0L69.01-7.87L67.88-7.87L65.22 0L66.24 0L67.00-2.40ZM75.22-7.87L75.22 0L76.16 0L76.16-4.12C76.16-4.53 76.15-4.95 76.12-5.36C76.09-5.77 76.06-6.18 76.03-6.58L76.08-6.58L76.93-4.96L79.79 0L80.82 0L80.82-7.87L79.87-7.87L79.87-3.80C79.87-3.39 79.89-2.97 79.91-2.54C79.94-2.11 79.97-1.70 79.99-1.30L79.94-1.30L79.09-2.93L76.25-7.87ZM82.98-7.87L82.98 0L87.64 0L87.64-0.85L83.98-0.85L83.98-3.71L86.96-3.71L86.96-4.56L83.98-4.56L83.98-7.03L87.52-7.03L87.52-7.87ZM89.30-7.87L89.30 0L93.96 0L93.96-0.85L90.30-0.85L90.30-3.71L93.29-3.71L93.29-4.56L90.30-4.56L90.30-7.03L93.84-7.03L93.84-7.87ZM95.63-7.87L95.63 0L97.64 0C98.24 0 98.76-0.09 99.22-0.27C99.67-0.45 100.06-0.71 100.37-1.05C100.68-1.39 100.92-1.81 101.08-2.30C101.24-2.79 101.32-3.35 101.32-3.97C101.32-5.23 101.00-6.19 100.37-6.86C99.74-7.54 98.81-7.87 97.60-7.87ZM97.52-0.82L96.62-0.82L96.62-7.06L97.52-7.06C98.44-7.06 99.13-6.79 99.59-6.26C100.05-5.74 100.28-4.97 100.28-3.97C100.28-2.97 100.05-2.20 99.59-1.64C99.13-1.09 98.44-0.82 97.52-0.82ZM105.43-7.87L105.43 0L106.43 0L106.43-7.87ZM110.22-7.03L110.22 0L111.23 0L111.23-7.03L113.60-7.03L113.60-7.87L107.84-7.87L107.84-7.03Z" transform="translate(-0.624, 8.016)"></path></g></g></g></g></g></g><mask id="a6cbcde7-991a-4e9c-b63b-20e7b012bfdb"><g fill="white"><rect data-gra="graph-name-bg" stroke-width="2" class="i-icon-bg" x="0" y="0" width="246.79000854492188" height="68.31599807739258"></rect>   </g> <g transform="translate(10,10)" fill="black"><g data-gra="path-name" fill-rule="" class="tp-name" transform="translate(0,0)"><g transform="scale(1)"><g><path d="M4.34-6.75L1.98-4.01C3.33-2.59 4.94-1.48 6.79-0.66 8.65 0.16 10.66 0.57 12.83 0.57 14.47 0.57 15.93 0.34 17.22-0.12 18.51-0.57 19.61-1.2 20.52-2.01 21.44-2.81 22.14-3.74 22.62-4.81 23.11-5.88 23.35-7.03 23.35-8.26 23.35-9.39 23.19-10.39 22.86-11.25 22.53-12.12 22.08-12.87 21.51-13.52 20.95-14.16 20.27-14.73 19.49-15.22 18.7-15.7 17.87-16.14 16.98-16.51L12.6-18.4C11.97-18.65 11.35-18.93 10.76-19.23 10.16-19.52 9.61-19.87 9.11-20.26 8.6-20.66 8.2-21.11 7.9-21.63 7.6-22.15 7.45-22.79 7.45-23.54 7.45-24.96 7.98-26.07 9.03-26.87 10.09-27.67 11.48-28.07 13.21-28.07 14.66-28.07 15.95-27.81 17.1-27.29 18.25-26.77 19.3-26.06 20.24-25.15L22.36-27.69C21.26-28.83 19.93-29.75 18.35-30.45 16.78-31.16 15.07-31.52 13.21-31.52 11.79-31.52 10.5-31.31 9.32-30.9 8.14-30.49 7.12-29.92 6.25-29.18 5.39-28.44 4.71-27.57 4.22-26.56 3.74-25.56 3.49-24.47 3.49-23.31 3.49-22.17 3.68-21.18 4.06-20.31 4.43-19.45 4.92-18.7 5.52-18.07 6.12-17.44 6.79-16.91 7.55-16.47 8.3-16.03 9.04-15.65 9.77-15.33L14.2-13.4C14.92-13.05 15.6-12.72 16.23-12.41 16.86-12.09 17.4-11.74 17.86-11.35 18.31-10.95 18.68-10.48 18.94-9.93 19.21-9.38 19.34-8.71 19.34-7.93 19.34-6.42 18.78-5.2 17.65-4.27 16.51-3.34 14.92-2.88 12.88-2.88 11.28-2.88 9.73-3.23 8.23-3.94 6.74-4.65 5.44-5.58 4.34-6.75ZM29.06-33.59L29.06 0 32.88 0 32.88-6.04 37.18-11.04 43.88 0 48.12 0 39.39-13.73 47.09-22.93 42.79-22.93 33.03-10.85 32.88-10.85 32.88-33.59ZM54.4-27.65C55.15-27.65 55.79-27.88 56.31-28.35 56.83-28.83 57.09-29.42 57.09-30.15 57.09-30.9 56.83-31.51 56.31-31.96 55.79-32.42 55.15-32.65 54.4-32.65 53.64-32.65 53.01-32.42 52.49-31.96 51.97-31.51 51.71-30.9 51.71-30.15 51.71-29.42 51.97-28.83 52.49-28.35 53.01-27.88 53.64-27.65 54.4-27.65ZM52.42-22.93L52.42 0 56.29 0 56.29-22.93ZM64.02-33.59L64.02 0 67.14 0 67.47-2.26 67.61-2.26C68.61-1.35 69.69-0.65 70.84-0.17 71.99 0.32 73.1 0.57 74.17 0.57 75.49 0.57 76.75 0.29 77.94-0.26 79.14-0.81 80.19-1.62 81.1-2.69 82.01-3.76 82.74-5.06 83.27-6.61 83.81-8.15 84.07-9.89 84.07-11.84 84.07-13.6 83.88-15.2 83.48-16.63 83.09-18.06 82.51-19.29 81.74-20.31 80.97-21.33 80.02-22.12 78.88-22.67 77.75-23.22 76.45-23.5 74.97-23.5 73.68-23.5 72.42-23.19 71.19-22.58 69.97-21.96 68.83-21.2 67.8-20.29L67.89-24.44 67.89-33.59ZM67.89-5.1L67.89-17.13C70.12-19.2 72.17-20.24 74.02-20.24 75.09-20.24 76.01-20.04 76.78-19.63 77.56-19.22 78.18-18.64 78.67-17.9 79.16-17.17 79.51-16.28 79.73-15.24 79.95-14.2 80.06-13.05 80.06-11.79 80.06-10.38 79.9-9.11 79.57-7.97 79.24-6.84 78.78-5.89 78.2-5.12 77.62-4.35 76.93-3.75 76.12-3.33 75.32-2.9 74.45-2.69 73.51-2.69 72.75-2.69 71.88-2.87 70.89-3.23 69.9-3.59 68.9-4.21 67.89-5.1ZM92.19-27.65C92.94-27.65 93.58-27.88 94.1-28.35 94.62-28.83 94.88-29.42 94.88-30.15 94.88-30.9 94.62-31.51 94.1-31.96 93.58-32.42 92.94-32.65 92.19-32.65 91.43-32.65 90.8-32.42 90.28-31.96 89.76-31.51 89.5-30.9 89.5-30.15 89.5-29.42 89.76-28.83 90.28-28.35 90.8-27.88 91.43-27.65 92.19-27.65ZM90.21-22.93L90.21 0 94.08 0 94.08-22.93ZM100.16-11.42C100.16-7.58 101.02-4.62 102.73-2.55 104.45-0.47 106.75 0.57 109.65 0.57 111 0.57 112.26 0.24 113.44-0.4 114.62-1.05 115.67-1.81 116.58-2.69L116.72-2.69 117.05 0 120.26 0 120.26-33.59 116.34-33.59 116.34-24.77 116.53-20.85C115.53-21.67 114.54-22.32 113.56-22.79 112.59-23.26 111.44-23.5 110.12-23.5 108.8-23.5 107.54-23.21 106.34-22.65 105.15-22.08 104.09-21.28 103.18-20.24 102.27-19.2 101.54-17.94 100.99-16.44 100.44-14.95 100.16-13.27 100.16-11.42ZM104.17-11.46C104.17-12.79 104.35-13.98 104.69-15.05 105.04-16.12 105.51-17.04 106.11-17.81 106.7-18.58 107.4-19.18 108.21-19.6 109.01-20.03 109.87-20.24 110.78-20.24 111.72-20.24 112.64-20.06 113.54-19.7 114.43-19.34 115.37-18.71 116.34-17.83L116.34-5.85C115.4-4.78 114.46-3.99 113.51-3.47 112.57-2.95 111.56-2.69 110.49-2.69 108.48-2.69 106.92-3.46 105.82-5 104.72-6.54 104.17-8.7 104.17-11.46ZM129.98-27.65C130.73-27.65 131.37-27.88 131.89-28.35 132.41-28.83 132.67-29.42 132.67-30.15 132.67-30.9 132.41-31.51 131.89-31.96 131.37-32.42 130.73-32.65 129.98-32.65 129.22-32.65 128.59-32.42 128.07-31.96 127.55-31.51 127.29-30.9 127.29-30.15 127.29-29.42 127.55-28.83 128.07-28.35 128.59-27.88 129.22-27.65 129.98-27.65ZM128-22.93L128 0 131.87 0 131.87-22.93ZM137.95-11.42C137.95-7.58 138.81-4.62 140.52-2.55 142.24-0.47 144.54 0.57 147.44 0.57 148.79 0.57 150.05 0.24 151.23-0.4 152.41-1.05 153.46-1.81 154.37-2.69L154.51-2.69 154.84 0 158.05 0 158.05-33.59 154.14-33.59 154.14-24.77 154.32-20.85C153.32-21.67 152.33-22.32 151.35-22.79 150.38-23.26 149.23-23.5 147.91-23.5 146.59-23.5 145.33-23.21 144.13-22.65 142.94-22.08 141.88-21.28 140.97-20.24 140.06-19.2 139.33-17.94 138.78-16.44 138.23-14.95 137.95-13.27 137.95-11.42ZM141.96-11.46C141.96-12.79 142.14-13.98 142.48-15.05 142.83-16.12 143.3-17.04 143.9-17.81 144.5-18.58 145.19-19.18 146-19.6 146.8-20.03 147.66-20.24 148.57-20.24 149.51-20.24 150.43-20.06 151.33-19.7 152.22-19.34 153.16-18.71 154.14-17.83L154.14-5.85C153.19-4.78 152.25-3.99 151.3-3.47 150.36-2.95 149.35-2.69 148.29-2.69 146.27-2.69 144.72-3.46 143.61-5 142.51-6.54 141.96-8.7 141.96-11.46ZM165.79-22.93L165.79 0 169.66 0 169.66-14.72C170.44-16.67 171.36-18.04 172.42-18.82 173.47-19.61 174.49-20 175.46-20 175.93-20 176.33-19.97 176.64-19.91 176.95-19.85 177.3-19.75 177.68-19.63L178.43-23.02C177.71-23.34 176.89-23.5 175.98-23.5 174.66-23.5 173.44-23.07 172.32-22.22 171.21-21.37 170.26-20.22 169.47-18.78L169.33-18.78 169-22.93ZM184.14-27.65C184.9-27.65 185.53-27.88 186.05-28.35 186.57-28.83 186.83-29.42 186.83-30.15 186.83-30.9 186.57-31.51 186.05-31.96 185.53-32.42 184.9-32.65 184.14-32.65 183.39-32.65 182.75-32.42 182.23-31.96 181.71-31.51 181.45-30.9 181.45-30.15 181.45-29.42 181.71-28.83 182.23-28.35 182.75-27.88 183.39-27.65 184.14-27.65ZM182.16-22.93L182.16 0 186.03 0 186.03-22.93ZM191.36-2.08L191.36 0 208.72 0 208.72-3.16 196.27-3.16 208.34-20.85 208.34-22.93 192.68-22.93 192.68-19.77 203.44-19.77ZM211.41-2.08L211.41 0 228.77 0 228.77-3.16 216.32-3.16 228.4-20.85 228.4-22.93 212.73-22.93 212.73-19.77 223.49-19.77Z" transform="translate(-1.9800000190734863, 33.59000015258789)"></path></g>       </g></g> <g data-gra="path-slogan" fill-rule="" class="tp-slogan" transform="translate(56.905006408691406,40.15999984741211)">  <g transform="scale(1, 1)"><g transform="scale(1)"><path d="M0.62-3.94C0.62-3.30 0.71-2.72 0.89-2.21C1.06-1.71 1.31-1.28 1.62-0.93C1.93-0.58 2.30-0.32 2.74-0.13C3.17 0.05 3.64 0.14 4.16 0.14C4.69 0.14 5.17 0.06 5.59-0.11C6.01-0.29 6.34-0.50 6.60-0.77L6.60-4.08L4.02-4.08L4.02-3.25L5.69-3.25L5.69-1.20C5.53-1.06 5.32-0.94 5.07-0.86C4.82-0.77 4.55-0.73 4.27-0.73C3.85-0.73 3.47-0.81 3.15-0.96C2.83-1.11 2.55-1.33 2.33-1.61C2.11-1.89 1.95-2.23 1.83-2.62C1.71-3.02 1.66-3.46 1.66-3.96C1.66-4.45 1.72-4.89 1.84-5.28C1.97-5.67 2.14-6.01 2.36-6.28C2.59-6.56 2.86-6.77 3.18-6.92C3.50-7.07 3.86-7.14 4.26-7.14C4.66-7.14 4.99-7.07 5.25-6.93C5.51-6.79 5.74-6.62 5.94-6.41L6.50-7.04C6.27-7.28 5.97-7.51 5.61-7.71C5.25-7.91 4.79-8.02 4.25-8.02C3.72-8.02 3.24-7.92 2.80-7.73C2.36-7.55 1.97-7.28 1.65-6.92C1.33-6.57 1.07-6.14 0.89-5.64C0.71-5.14 0.62-4.57 0.62-3.94ZM9.76-3.05L9.76 0L10.76 0L10.76-3.05L13.13-7.87L12.08-7.87L11.08-5.65C10.96-5.36 10.83-5.08 10.69-4.80C10.56-4.52 10.42-4.23 10.28-3.94L10.24-3.94C10.10-4.23 9.97-4.52 9.85-4.80C9.73-5.08 9.61-5.36 9.48-5.65L8.46-7.87L7.39-7.87ZM17.38-3.20L15.01-3.20L15.38-4.40C15.53-4.84 15.66-5.28 15.79-5.72C15.92-6.15 16.04-6.60 16.16-7.06L16.21-7.06C16.34-6.60 16.47-6.15 16.60-5.72C16.72-5.28 16.86-4.84 17.00-4.40ZM17.63-2.40L18.37 0L19.44 0L16.78-7.87L15.65-7.87L12.98 0L14.00 0L14.76-2.40ZM21.71-7.03L21.71 0L22.72 0L22.72-7.03L25.09-7.03L25.09-7.87L19.33-7.87L19.33-7.03ZM28.14-7.03L28.14 0L29.15 0L29.15-7.03L31.52-7.03L31.52-7.87L25.76-7.87L25.76-7.03ZM34.91-3.94C34.91-3.30 35.00-2.72 35.17-2.21C35.35-1.71 35.59-1.28 35.90-0.93C36.22-0.58 36.59-0.32 37.02-0.13C37.45 0.05 37.93 0.14 38.45 0.14C38.98 0.14 39.45 0.06 39.87-0.11C40.29-0.29 40.63-0.50 40.88-0.77L40.88-4.08L38.30-4.08L38.30-3.25L39.97-3.25L39.97-1.20C39.81-1.06 39.61-0.94 39.35-0.86C39.10-0.77 38.84-0.73 38.56-0.73C38.13-0.73 37.76-0.81 37.43-0.96C37.11-1.11 36.84-1.33 36.62-1.61C36.40-1.89 36.23-2.23 36.11-2.62C36.00-3.02 35.94-3.46 35.94-3.96C35.94-4.45 36.00-4.89 36.13-5.28C36.25-5.67 36.42-6.01 36.65-6.28C36.87-6.56 37.14-6.77 37.46-6.92C37.78-7.07 38.14-7.14 38.54-7.14C38.94-7.14 39.27-7.07 39.53-6.93C39.79-6.79 40.02-6.62 40.22-6.41L40.79-7.04C40.56-7.28 40.26-7.51 39.89-7.71C39.53-7.91 39.08-8.02 38.53-8.02C38.00-8.02 37.52-7.92 37.08-7.73C36.64-7.55 36.26-7.28 35.93-6.92C35.61-6.57 35.36-6.14 35.18-5.64C35.00-5.14 34.91-4.57 34.91-3.94ZM45.67 0.14C46.17 0.14 46.62 0.05 47.03-0.14C47.45-0.34 47.80-0.61 48.10-0.97C48.40-1.32 48.63-1.75 48.80-2.26C48.96-2.77 49.04-3.34 49.04-3.97C49.04-4.60 48.96-5.16 48.80-5.66C48.63-6.16 48.40-6.58 48.10-6.93C47.80-7.28 47.45-7.55 47.03-7.73C46.62-7.92 46.17-8.02 45.67-8.02C45.18-8.02 44.72-7.92 44.31-7.74C43.90-7.56 43.54-7.29 43.25-6.94C42.95-6.59 42.72-6.17 42.56-5.67C42.39-5.17 42.31-4.60 42.31-3.97C42.31-3.34 42.39-2.77 42.56-2.26C42.72-1.75 42.95-1.32 43.25-0.97C43.54-0.61 43.90-0.34 44.31-0.14C44.72 0.05 45.18 0.14 45.67 0.14ZM45.67-0.73C45.32-0.73 45.00-0.81 44.72-0.96C44.43-1.11 44.19-1.33 43.99-1.61C43.78-1.90 43.62-2.24 43.51-2.63C43.40-3.03 43.34-3.48 43.34-3.97C43.34-4.46 43.40-4.90 43.51-5.29C43.62-5.68 43.78-6.02 43.99-6.29C44.19-6.56 44.43-6.77 44.72-6.92C45.00-7.07 45.32-7.14 45.67-7.14C46.02-7.14 46.34-7.07 46.63-6.92C46.91-6.77 47.15-6.56 47.36-6.29C47.56-6.02 47.72-5.68 47.83-5.29C47.94-4.90 48-4.46 48-3.97C48-3.48 47.94-3.03 47.83-2.63C47.72-2.24 47.56-1.90 47.36-1.61C47.15-1.33 46.91-1.11 46.63-0.96C46.34-0.81 46.02-0.73 45.67-0.73ZM50.74-7.87L50.74 0L51.68 0L51.68-4.12C51.68-4.53 51.67-4.95 51.64-5.36C51.61-5.77 51.58-6.18 51.55-6.58L51.60-6.58L52.45-4.96L55.31 0L56.34 0L56.34-7.87L55.39-7.87L55.39-3.80C55.39-3.39 55.41-2.97 55.43-2.54C55.46-2.11 55.49-1.70 55.51-1.30L55.46-1.30L54.61-2.93L51.77-7.87ZM58.50-7.87L58.50 0L59.45 0L59.45-4.12C59.45-4.53 59.43-4.95 59.41-5.36C59.38-5.77 59.35-6.18 59.32-6.58L59.36-6.58L60.22-4.96L63.07 0L64.10 0L64.10-7.87L63.16-7.87L63.16-3.80C63.16-3.39 63.17-2.97 63.20-2.54C63.23-2.11 63.25-1.70 63.28-1.30L63.23-1.30L62.38-2.93L59.53-7.87ZM69.61-3.20L67.25-3.20L67.62-4.40C67.76-4.84 67.90-5.28 68.03-5.72C68.16-6.15 68.28-6.60 68.40-7.06L68.45-7.06C68.58-6.60 68.70-6.15 68.83-5.72C68.96-5.28 69.10-4.84 69.24-4.40ZM69.86-2.40L70.61 0L71.68 0L69.01-7.87L67.88-7.87L65.22 0L66.24 0L67.00-2.40ZM75.22-7.87L75.22 0L76.16 0L76.16-4.12C76.16-4.53 76.15-4.95 76.12-5.36C76.09-5.77 76.06-6.18 76.03-6.58L76.08-6.58L76.93-4.96L79.79 0L80.82 0L80.82-7.87L79.87-7.87L79.87-3.80C79.87-3.39 79.89-2.97 79.91-2.54C79.94-2.11 79.97-1.70 79.99-1.30L79.94-1.30L79.09-2.93L76.25-7.87ZM82.98-7.87L82.98 0L87.64 0L87.64-0.85L83.98-0.85L83.98-3.71L86.96-3.71L86.96-4.56L83.98-4.56L83.98-7.03L87.52-7.03L87.52-7.87ZM89.30-7.87L89.30 0L93.96 0L93.96-0.85L90.30-0.85L90.30-3.71L93.29-3.71L93.29-4.56L90.30-4.56L90.30-7.03L93.84-7.03L93.84-7.87ZM95.63-7.87L95.63 0L97.64 0C98.24 0 98.76-0.09 99.22-0.27C99.67-0.45 100.06-0.71 100.37-1.05C100.68-1.39 100.92-1.81 101.08-2.30C101.24-2.79 101.32-3.35 101.32-3.97C101.32-5.23 101.00-6.19 100.37-6.86C99.74-7.54 98.81-7.87 97.60-7.87ZM97.52-0.82L96.62-0.82L96.62-7.06L97.52-7.06C98.44-7.06 99.13-6.79 99.59-6.26C100.05-5.74 100.28-4.97 100.28-3.97C100.28-2.97 100.05-2.20 99.59-1.64C99.13-1.09 98.44-0.82 97.52-0.82ZM105.43-7.87L105.43 0L106.43 0L106.43-7.87ZM110.22-7.03L110.22 0L111.23 0L111.23-7.03L113.60-7.03L113.60-7.87L107.84-7.87L107.84-7.03Z" transform="translate(-0.624, 8.016)"></path></g></g></g></g></mask><defs v-gra="od"></defs></svg>